# xmcd
#
# Track frame offsets: 
#        150
#        11660
#        24370
#        37187
#        50272
#        64232
#        75897
#        88475
#        100997
#        110572
#        123040
#        135642
#        147652
#        161192
#        173227
#        183780
#        194920
#        207592
#
# Disc length: 2902 seconds
#
# Revision: 2
# Processed by: cddbd v1.5.2PL0 Copyright (c) Steve Scherf et al.
# Submitted via: ExactAudioCopy v0.99pb5
#
DISCID=070b5412
DTITLE=Various Artist - The History Of Country Music - The Fifties - Volume 1
DTITLE=Various Artist - CD 1
DYEAR=1993
DGENRE=Country
TTITLE0=Ray Price - Crazy arms
TTITLE1=Hank Snow - Rhumba boogie
TTITLE2=Carl Smith - Let old mother nature have her way
TTITLE3=Hank Williams - Jambalaya (on the bayou)
TTITLE4=Lefty Frizzell - Always late (with your kisses)
TTITLE5=Rusty Draper - Gambler's guitar
TTITLE6=Red Foley - Chattanoogie shoe shine boy
TTITLE7=Browns - I take the chance
TTITLE8=Webb Pierce - In the jailhouse now
TTITLE9=Eddy Arnold - The cattle call
TTITLE10=George Jones - White lightning
TTITLE11=Kitty Wells - It wasn't God who made honky tonk angels
TTITLE12=Pee Wee King - Slow poke
TTITLE13=Jim Reeves - Mexican Joe
TTITLE14=Roy Acuff - So many times
TTITLE15=Marty Robbins - Singing the blues
TTITLE16=Hank Snow - Golden rocket
TTITLE17=Carl Perkins - Blue suede shoes
EXTD=
EXTT0=
EXTT1=
EXTT2=
EXTT3=
EXTT4=
EXTT5=
EXTT6=
EXTT7=
EXTT8=
EXTT9=
EXTT10=
EXTT11=
EXTT12=
EXTT13=
EXTT14=
EXTT15=
EXTT16=
EXTT17=
PLAYORDER=
